<?xml version="1.0" encoding="utf-8"?>
<!-- Generator: Adobe Illustrator 27.5.0, SVG Export Plug-In . SVG Version: 6.00 Build 0)  -->
<svg version="1.1" xmlns="http://www.w3.org/2000/svg" xmlns:xlink="http://www.w3.org/1999/xlink" x="0px" y="0px"
	 viewBox="0 0 750 500" style="enable-background:new 0 0 750 500;" xml:space="preserve">
<g id="BACKGROUND">
	<linearGradient id="SVGID_1_" gradientUnits="userSpaceOnUse" x1="0" y1="250" x2="750" y2="250">
		<stop  offset="0" style="stop-color:#FFFFFF"/>
		<stop  offset="1" style="stop-color:#EAEAEA"/>
	</linearGradient>
	<rect style="fill:url(#SVGID_1_);" width="750" height="500"/>
</g>
<g id="OBJECTS">
	<g>
		<defs>
			<rect id="SVGID_00000012453873811319996140000006376130654606736307_" width="748.932" height="499.133"/>
		</defs>
		<clipPath id="SVGID_00000087392765556363567870000000078314922767581586_">
			<use xlink:href="#SVGID_00000012453873811319996140000006376130654606736307_"  style="overflow:visible;"/>
		</clipPath>
		<g style="clip-path:url(#SVGID_00000087392765556363567870000000078314922767581586_);">
			
				<linearGradient id="SVGID_00000172428424312747937360000000880676300004226201_" gradientUnits="userSpaceOnUse" x1="-69.6009" y1="286.44" x2="105.8432" y2="461.8841" gradientTransform="matrix(0.94 -0.06 -0.06 0.94 57.0715 57.0715)">
				<stop  offset="0" style="stop-color:#FFFFFF"/>
				<stop  offset="1" style="stop-color:#EAEAEA;stop-opacity:0.5"/>
			</linearGradient>
			<polygon style="fill:url(#SVGID_00000172428424312747937360000000880676300004226201_);" points="41.128,572.615 
				-113.263,418.224 62.184,242.778 216.574,397.168 			"/>
			
				<linearGradient id="SVGID_00000002381886212237136920000002498161853774997174_" gradientUnits="userSpaceOnUse" x1="154.5885" y1="573.4578" x2="479.2249" y2="573.4578" gradientTransform="matrix(0.7071 0.7071 -0.7071 0.7071 785.9575 -197.3441)">
				<stop  offset="0.2396" style="stop-color:#FFFFFF;stop-opacity:0"/>
				<stop  offset="1" style="stop-color:#D6D6D6"/>
			</linearGradient>
			<polygon style="fill:url(#SVGID_00000002381886212237136920000002498161853774997174_);" points="604.55,661.783 375,432.233 
				604.55,202.682 834.101,432.233 			"/>
			
				<linearGradient id="SVGID_00000060018030306430152980000013154622095132632452_" gradientUnits="userSpaceOnUse" x1="269.0698" y1="385.1426" x2="391.1202" y2="507.193">
				<stop  offset="0" style="stop-color:#D6D6D6"/>
				<stop  offset="0.7604" style="stop-color:#FFFFFF;stop-opacity:0"/>
			</linearGradient>
			<polygon style="fill:url(#SVGID_00000060018030306430152980000013154622095132632452_);" points="330.095,568.218 
				208.045,446.168 330.095,324.117 452.145,446.168 			"/>
			
				<linearGradient id="SVGID_00000121974719446105944820000016427972588405313978_" gradientUnits="userSpaceOnUse" x1="426.4426" y1="116.4598" x2="530.452" y2="220.4693">
				<stop  offset="0" style="stop-color:#D6D6D6"/>
				<stop  offset="0.7604" style="stop-color:#FFFFFF;stop-opacity:0"/>
			</linearGradient>
			<polygon style="fill:url(#SVGID_00000121974719446105944820000016427972588405313978_);" points="478.447,272.474 
				374.438,168.464 478.447,64.455 582.457,168.464 			"/>
			
				<linearGradient id="SVGID_00000136394810592382031960000008977802678854672829_" gradientUnits="userSpaceOnUse" x1="397.0904" y1="-38.9027" x2="474.8958" y2="38.9028">
				<stop  offset="0.2396" style="stop-color:#FFFFFF;stop-opacity:0"/>
				<stop  offset="1" style="stop-color:#D6D6D6"/>
			</linearGradient>
			<polygon style="fill:url(#SVGID_00000136394810592382031960000008977802678854672829_);" points="435.993,77.805 358.188,0 
				435.993,-77.805 513.799,0 			"/>
			
				<linearGradient id="SVGID_00000056415536911388513270000012898986893882824891_" gradientUnits="userSpaceOnUse" x1="543.5251" y1="407.7122" x2="665.5755" y2="529.7626">
				<stop  offset="0" style="stop-color:#D6D6D6"/>
				<stop  offset="0.7604" style="stop-color:#FFFFFF;stop-opacity:0"/>
			</linearGradient>
			<polygon style="fill:url(#SVGID_00000056415536911388513270000012898986893882824891_);" points="604.55,590.788 482.5,468.737 
				604.55,346.687 726.601,468.737 			"/>
			
				<linearGradient id="SVGID_00000160182326341745259990000014539923961026807455_" gradientUnits="userSpaceOnUse" x1="-15.3149" y1="402.3823" x2="31.9842" y2="402.3823" gradientTransform="matrix(0.7071 0.7071 -0.7071 0.7071 785.9575 -197.3441)">
				<stop  offset="0" style="stop-color:#FFFFFF"/>
				<stop  offset="1" style="stop-color:#EAEAEA;stop-opacity:0.5"/>
			</linearGradient>
			<polygon style="fill:url(#SVGID_00000160182326341745259990000014539923961026807455_);" points="507.326,126.519 
				473.881,93.074 507.326,59.629 540.772,93.074 			"/>
			
				<linearGradient id="SVGID_00000165231824630430552590000005652485600131926157_" gradientUnits="userSpaceOnUse" x1="96.3606" y1="773.6479" x2="217.9328" y2="773.6479" gradientTransform="matrix(0.7071 0.7071 -0.7071 0.7071 785.9575 -197.3441)">
				<stop  offset="0" style="stop-color:#FFFFFF"/>
				<stop  offset="1" style="stop-color:#D6D6D6"/>
			</linearGradient>
			<polygon style="fill:url(#SVGID_00000165231824630430552590000005652485600131926157_);" points="350.029,546.784 
				264.066,460.821 350.029,374.857 435.993,460.821 			"/>
			
				<linearGradient id="SVGID_00000163030447093102150040000007551513157684739488_" gradientUnits="userSpaceOnUse" x1="22.0569" y1="223.5465" x2="143.6292" y2="223.5465" gradientTransform="matrix(0.7071 0.7071 -0.7071 0.7071 785.9575 -197.3441)">
				<stop  offset="0" style="stop-color:#D6D6D6"/>
				<stop  offset="1" style="stop-color:#FFFFFF"/>
			</linearGradient>
			<polygon style="fill:url(#SVGID_00000163030447093102150040000007551513157684739488_);" points="686.466,105.268 
				600.502,19.304 686.466,-66.66 772.43,19.304 			"/>
			
				<linearGradient id="SVGID_00000165930664253499646170000013051125233094959540_" gradientUnits="userSpaceOnUse" x1="612.941" y1="48.8376" x2="734.9914" y2="170.888">
				<stop  offset="0" style="stop-color:#FFFFFF"/>
				<stop  offset="1" style="stop-color:#EAEAEA;stop-opacity:0.5"/>
			</linearGradient>
			<polygon style="fill:url(#SVGID_00000165930664253499646170000013051125233094959540_);" points="673.966,231.913 
				551.916,109.863 673.966,-12.188 796.017,109.863 			"/>
			
				<linearGradient id="SVGID_00000030455537310043751070000000089393104729412537_" gradientUnits="userSpaceOnUse" x1="388.5583" y1="383.772" x2="436.4075" y2="431.6211">
				<stop  offset="0" style="stop-color:#D6D6D6"/>
				<stop  offset="1" style="stop-color:#FFFFFF"/>
			</linearGradient>
			<polygon style="fill:url(#SVGID_00000030455537310043751070000000089393104729412537_);" points="412.483,455.546 
				364.634,407.697 412.483,359.847 460.332,407.697 			"/>
			
				<linearGradient id="SVGID_00000012444213688112297470000008481325227906819774_" gradientUnits="userSpaceOnUse" x1="90.3159" y1="403.5915" x2="172.8354" y2="403.5915" gradientTransform="matrix(0.7071 0.7071 -0.7071 0.7071 785.9575 -197.3441)">
				<stop  offset="0" style="stop-color:#D6D6D6"/>
				<stop  offset="1" style="stop-color:#FFFFFF"/>
			</linearGradient>
			<polygon style="fill:url(#SVGID_00000012444213688112297470000008481325227906819774_);" points="593.615,239.422 
				535.266,181.072 593.615,122.723 651.965,181.072 			"/>
			
				<linearGradient id="SVGID_00000173841764716397631830000008245848113644738471_" gradientUnits="userSpaceOnUse" x1="643.4843" y1="237.664" x2="729.448" y2="323.6278">
				<stop  offset="0.2396" style="stop-color:#FFFFFF;stop-opacity:0"/>
				<stop  offset="1" style="stop-color:#D6D6D6"/>
			</linearGradient>
			<polygon style="fill:url(#SVGID_00000173841764716397631830000008245848113644738471_);" points="686.466,366.61 
				600.502,280.646 686.466,194.682 772.43,280.646 			"/>
			<g id="XMLID_162_">
				
					<linearGradient id="XMLID_00000019671848263290970530000007719653376577540022_" gradientUnits="userSpaceOnUse" x1="7.5134" y1="427.1282" x2="7.5134" y2="-70.107">
					<stop  offset="0" style="stop-color:#F4F4F4;stop-opacity:0"/>
					<stop  offset="0.3807" style="stop-color:#E4E4E4;stop-opacity:0.3825"/>
					<stop  offset="0.9951" style="stop-color:#C1C1C1"/>
				</linearGradient>
				<path id="XMLID_164_" style="fill:url(#XMLID_00000019671848263290970530000007719653376577540022_);" d="M7.512,394.697
					L-323.003,64.179L7.512-266.339L338.029,64.179L7.512,394.697z M-193.969,64.179L7.512,265.661L208.994,64.179L7.512-137.303
					L-193.969,64.179z"/>
			</g>
			<g id="XMLID_89_">
				
					<linearGradient id="XMLID_00000023257162285645861520000010338432229965838738_" gradientUnits="userSpaceOnUse" x1="5.4036" y1="260.0482" x2="5.4036" y2="10.5422">
					<stop  offset="0" style="stop-color:#F4F4F4;stop-opacity:0"/>
					<stop  offset="0.3807" style="stop-color:#E4E4E4;stop-opacity:0.3825"/>
					<stop  offset="0.9951" style="stop-color:#C1C1C1"/>
				</linearGradient>
				<path id="XMLID_90_" style="fill:url(#XMLID_00000023257162285645861520000010338432229965838738_);" d="M5.403,237.292
					L-165.709,66.179L5.403-104.934L176.516,66.179L5.403,237.292z M-80.329,66.179l85.732,85.733l85.733-85.733L5.403-19.554
					L-80.329,66.179z"/>
			</g>
			<g id="XMLID_85_">
				
					<linearGradient id="XMLID_00000145764993632101045510000017077988787278886581_" gradientUnits="userSpaceOnUse" x1="421.8139" y1="304.6306" x2="597.7987" y2="304.6306">
					<stop  offset="0.0049" style="stop-color:#D6D6D6"/>
					<stop  offset="0.5421" style="stop-color:#EFEFEF"/>
					<stop  offset="1" style="stop-color:#FFFFFF"/>
				</linearGradient>
				<path id="XMLID_86_" style="fill:url(#XMLID_00000145764993632101045510000017077988787278886581_);" d="M509.806,392.623
					l-87.992-87.993l87.992-87.993l87.993,87.993L509.806,392.623z M465.719,304.63l44.086,44.087l44.087-44.087l-44.087-44.087
					L465.719,304.63z"/>
			</g>
			
				<linearGradient id="SVGID_00000097497860924166080440000002101267845420133799_" gradientUnits="userSpaceOnUse" x1="224.0988" y1="136.1304" x2="285.9132" y2="197.9449">
				<stop  offset="0" style="stop-color:#FFFFFF"/>
				<stop  offset="1" style="stop-color:#EAEAEA;stop-opacity:0.5"/>
			</linearGradient>
			<polygon style="fill:url(#SVGID_00000097497860924166080440000002101267845420133799_);" points="255.006,228.852 
				193.191,167.038 255.006,105.223 316.82,167.038 			"/>
		</g>
	</g>
	<g id="XMLID_362_">
		<g id="XMLID_656_">
			<g id="XMLID_691_">
				<g id="XMLID_692_">
					<circle id="XMLID_706_" style="fill:#FFFFFF;stroke:#FFFFFF;stroke-miterlimit:10;" cx="39.924" cy="83.684" r="3.926"/>
					<path id="XMLID_705_" style="fill:#FFFFFF;stroke:#FFFFFF;stroke-miterlimit:10;" d="M43.85,107.132
						c0,2.168-1.758,3.926-3.926,3.926c-2.168,0-3.926-1.758-3.926-3.926c0-2.168,1.757-3.926,3.926-3.926
						C42.092,103.206,43.85,104.963,43.85,107.132z"/>
					<path id="XMLID_703_" style="fill:#FFFFFF;stroke:#FFFFFF;stroke-miterlimit:10;" d="M43.85,130.578
						c0,2.168-1.758,3.926-3.926,3.926c-2.168,0-3.926-1.758-3.926-3.926c0-2.168,1.757-3.926,3.926-3.926
						C42.092,126.653,43.85,128.41,43.85,130.578z"/>
					<path id="XMLID_701_" style="fill:#FFFFFF;stroke:#FFFFFF;stroke-miterlimit:10;" d="M43.85,154.026
						c0,2.168-1.758,3.926-3.926,3.926c-2.168,0-3.926-1.758-3.926-3.926s1.757-3.926,3.926-3.926
						C42.092,150.1,43.85,151.858,43.85,154.026z"/>
					<path id="XMLID_697_" style="fill:#FFFFFF;stroke:#FFFFFF;stroke-miterlimit:10;" d="M43.85,177.473
						c0,2.168-1.758,3.926-3.926,3.926c-2.168,0-3.926-1.758-3.926-3.926c0-2.168,1.757-3.926,3.926-3.926
						C42.092,173.547,43.85,175.305,43.85,177.473z"/>
					<path id="XMLID_696_" style="fill:#FFFFFF;stroke:#FFFFFF;stroke-miterlimit:10;" d="M43.85,200.92
						c0,2.168-1.758,3.926-3.926,3.926c-2.168,0-3.926-1.758-3.926-3.926c0-2.168,1.757-3.926,3.926-3.926
						C42.092,196.994,43.85,198.752,43.85,200.92z"/>
					<circle id="XMLID_695_" style="fill:#FFFFFF;stroke:#FFFFFF;stroke-miterlimit:10;" cx="39.924" cy="224.367" r="3.926"/>
					<circle id="XMLID_693_" style="fill:#FFFFFF;stroke:#FFFFFF;stroke-miterlimit:10;" cx="39.924" cy="247.814" r="3.926"/>
				</g>
			</g>
			<g id="XMLID_657_">
				<g id="XMLID_664_">
					<path id="XMLID_690_" style="fill:#FFFFFF;stroke:#FFFFFF;stroke-miterlimit:10;" d="M43.85,269.624
						c0,2.168-1.758,3.926-3.926,3.926c-2.168,0-3.926-1.758-3.926-3.926c0-2.168,1.757-3.926,3.926-3.926
						C42.092,265.698,43.85,267.455,43.85,269.624z"/>
					<path id="XMLID_689_" style="fill:#FFFFFF;stroke:#FFFFFF;stroke-miterlimit:10;" d="M43.85,293.071
						c0,2.168-1.758,3.926-3.926,3.926c-2.168,0-3.926-1.757-3.926-3.926c0-2.168,1.757-3.926,3.926-3.926
						C42.092,289.145,43.85,290.903,43.85,293.071z"/>
					<path id="XMLID_686_" style="fill:#FFFFFF;stroke:#FFFFFF;stroke-miterlimit:10;" d="M43.85,316.518
						c0,2.168-1.758,3.926-3.926,3.926c-2.168,0-3.926-1.757-3.926-3.926c0-2.168,1.757-3.926,3.926-3.926
						C42.092,312.592,43.85,314.35,43.85,316.518z"/>
					<path id="XMLID_675_" style="fill:#FFFFFF;stroke:#FFFFFF;stroke-miterlimit:10;" d="M43.85,339.965
						c0,2.168-1.758,3.925-3.926,3.925c-2.168,0-3.926-1.757-3.926-3.925c0-2.168,1.757-3.926,3.926-3.926
						C42.092,336.039,43.85,337.797,43.85,339.965z"/>
					<path id="XMLID_674_" style="fill:#FFFFFF;stroke:#FFFFFF;stroke-miterlimit:10;" d="M43.85,363.412
						c0,2.168-1.758,3.926-3.926,3.926c-2.168,0-3.926-1.758-3.926-3.926c0-2.168,1.757-3.926,3.926-3.926
						C42.092,359.487,43.85,361.244,43.85,363.412z"/>
					<path id="XMLID_673_" style="fill:#FFFFFF;stroke:#FFFFFF;stroke-miterlimit:10;" d="M43.85,386.859
						c0,2.168-1.758,3.925-3.926,3.925c-2.168,0-3.926-1.757-3.926-3.925c0-2.168,1.757-3.926,3.926-3.926
						C42.092,382.934,43.85,384.691,43.85,386.859z"/>
					<path id="XMLID_672_" style="fill:#FFFFFF;stroke:#FFFFFF;stroke-miterlimit:10;" d="M43.85,410.307
						c0,2.168-1.758,3.926-3.926,3.926c-2.168,0-3.926-1.758-3.926-3.926c0-2.168,1.757-3.926,3.926-3.926
						C42.092,406.381,43.85,408.138,43.85,410.307z"/>
					<path id="XMLID_670_" style="fill:#FFFFFF;stroke:#FFFFFF;stroke-miterlimit:10;" d="M43.85,433.754
						c0,2.168-1.758,3.925-3.926,3.925c-2.168,0-3.926-1.757-3.926-3.925c0-2.168,1.757-3.926,3.926-3.926
						C42.092,429.828,43.85,431.586,43.85,433.754z"/>
				</g>
			</g>
		</g>
		<g id="XMLID_516_">
			<g id="XMLID_537_">
				<g id="XMLID_539_">
					<path id="XMLID_655_" style="fill:#FFFFFF;stroke:#FFFFFF;stroke-miterlimit:10;" d="M99.037,83.684
						c0,2.168-1.758,3.926-3.926,3.926c-2.168,0-3.926-1.758-3.926-3.926s1.758-3.926,3.926-3.926
						C97.28,79.758,99.037,81.516,99.037,83.684z"/>
					<path id="XMLID_654_" style="fill:#FFFFFF;stroke:#FFFFFF;stroke-miterlimit:10;" d="M99.037,107.132
						c0,2.168-1.758,3.926-3.926,3.926c-2.168,0-3.926-1.758-3.926-3.926c0-2.168,1.758-3.926,3.926-3.926
						C97.28,103.206,99.037,104.963,99.037,107.132z"/>
					<path id="XMLID_653_" style="fill:#FFFFFF;stroke:#FFFFFF;stroke-miterlimit:10;" d="M99.037,130.578
						c0,2.168-1.758,3.926-3.926,3.926c-2.168,0-3.926-1.758-3.926-3.926c0-2.168,1.758-3.926,3.926-3.926
						C97.28,126.653,99.037,128.41,99.037,130.578z"/>
					<path id="XMLID_652_" style="fill:#FFFFFF;stroke:#FFFFFF;stroke-miterlimit:10;" d="M99.037,154.026
						c0,2.168-1.758,3.926-3.926,3.926c-2.168,0-3.926-1.758-3.926-3.926s1.758-3.926,3.926-3.926
						C97.28,150.1,99.037,151.858,99.037,154.026z"/>
					<path id="XMLID_651_" style="fill:#FFFFFF;stroke:#FFFFFF;stroke-miterlimit:10;" d="M99.037,177.473
						c0,2.168-1.758,3.926-3.926,3.926c-2.168,0-3.926-1.758-3.926-3.926c0-2.168,1.758-3.926,3.926-3.926
						C97.28,173.547,99.037,175.305,99.037,177.473z"/>
					<path id="XMLID_650_" style="fill:#FFFFFF;stroke:#FFFFFF;stroke-miterlimit:10;" d="M99.037,200.92
						c0,2.168-1.758,3.926-3.926,3.926c-2.168,0-3.926-1.758-3.926-3.926c0-2.168,1.758-3.926,3.926-3.926
						C97.28,196.994,99.037,198.752,99.037,200.92z"/>
					<path id="XMLID_649_" style="fill:#FFFFFF;stroke:#FFFFFF;stroke-miterlimit:10;" d="M99.037,224.367
						c0,2.168-1.758,3.926-3.926,3.926c-2.168,0-3.926-1.758-3.926-3.926s1.758-3.926,3.926-3.926
						C97.28,220.441,99.037,222.199,99.037,224.367z"/>
					<path id="XMLID_648_" style="fill:#FFFFFF;stroke:#FFFFFF;stroke-miterlimit:10;" d="M99.037,247.814
						c0,2.168-1.758,3.926-3.926,3.926c-2.168,0-3.926-1.758-3.926-3.926c0-2.168,1.758-3.926,3.926-3.926
						C97.28,243.889,99.037,245.646,99.037,247.814z"/>
				</g>
			</g>
			<g id="XMLID_517_">
				<g id="XMLID_522_">
					<path id="XMLID_535_" style="fill:#FFFFFF;stroke:#FFFFFF;stroke-miterlimit:10;" d="M99.037,269.624
						c0,2.168-1.758,3.926-3.926,3.926c-2.168,0-3.926-1.758-3.926-3.926c0-2.168,1.758-3.926,3.926-3.926
						C97.28,265.698,99.037,267.455,99.037,269.624z"/>
					<path id="XMLID_534_" style="fill:#FFFFFF;stroke:#FFFFFF;stroke-miterlimit:10;" d="M99.037,293.071
						c0,2.168-1.758,3.926-3.926,3.926c-2.168,0-3.926-1.757-3.926-3.926c0-2.168,1.758-3.926,3.926-3.926
						C97.28,289.145,99.037,290.903,99.037,293.071z"/>
					<path id="XMLID_533_" style="fill:#FFFFFF;stroke:#FFFFFF;stroke-miterlimit:10;" d="M99.037,316.518
						c0,2.168-1.758,3.926-3.926,3.926c-2.168,0-3.926-1.757-3.926-3.926c0-2.168,1.758-3.926,3.926-3.926
						C97.28,312.592,99.037,314.35,99.037,316.518z"/>
					<path id="XMLID_532_" style="fill:#FFFFFF;stroke:#FFFFFF;stroke-miterlimit:10;" d="M99.037,339.965
						c0,2.168-1.758,3.925-3.926,3.925c-2.168,0-3.926-1.757-3.926-3.925c0-2.168,1.758-3.926,3.926-3.926
						C97.28,336.039,99.037,337.797,99.037,339.965z"/>
					<path id="XMLID_531_" style="fill:#FFFFFF;stroke:#FFFFFF;stroke-miterlimit:10;" d="M99.037,363.412
						c0,2.168-1.758,3.926-3.926,3.926c-2.168,0-3.926-1.758-3.926-3.926c0-2.168,1.758-3.926,3.926-3.926
						C97.28,359.487,99.037,361.244,99.037,363.412z"/>
					<path id="XMLID_530_" style="fill:#FFFFFF;stroke:#FFFFFF;stroke-miterlimit:10;" d="M99.037,386.859
						c0,2.168-1.758,3.925-3.926,3.925c-2.168,0-3.926-1.757-3.926-3.925c0-2.168,1.758-3.926,3.926-3.926
						C97.28,382.934,99.037,384.691,99.037,386.859z"/>
					<path id="XMLID_529_" style="fill:#FFFFFF;stroke:#FFFFFF;stroke-miterlimit:10;" d="M99.037,410.307
						c0,2.168-1.758,3.926-3.926,3.926c-2.168,0-3.926-1.758-3.926-3.926c0-2.168,1.758-3.926,3.926-3.926
						C97.28,406.381,99.037,408.138,99.037,410.307z"/>
					<path id="XMLID_526_" style="fill:#FFFFFF;stroke:#FFFFFF;stroke-miterlimit:10;" d="M99.037,433.754
						c0,2.168-1.758,3.925-3.926,3.925c-2.168,0-3.926-1.757-3.926-3.925c0-2.168,1.758-3.926,3.926-3.926
						C97.28,429.828,99.037,431.586,99.037,433.754z"/>
				</g>
			</g>
		</g>
		<g id="XMLID_402_">
			<g id="XMLID_486_">
				<g id="XMLID_490_">
					<path id="XMLID_515_" style="fill:#FFFFFF;stroke:#FFFFFF;stroke-miterlimit:10;" d="M69.962,122.593
						c0,2.168-1.758,3.926-3.926,3.926c-2.168,0-3.926-1.757-3.926-3.926c0-2.168,1.758-3.925,3.926-3.925
						C68.205,118.668,69.962,120.425,69.962,122.593z"/>
					<path id="XMLID_513_" style="fill:#FFFFFF;stroke:#FFFFFF;stroke-miterlimit:10;" d="M69.962,146.041
						c0,2.168-1.758,3.926-3.926,3.926c-2.168,0-3.926-1.757-3.926-3.926c0-2.168,1.758-3.926,3.926-3.926
						C68.205,142.115,69.962,143.872,69.962,146.041z"/>
					<path id="XMLID_512_" style="fill:#FFFFFF;stroke:#FFFFFF;stroke-miterlimit:10;" d="M69.962,169.488
						c0,2.169-1.758,3.926-3.926,3.926c-2.168,0-3.926-1.757-3.926-3.926c0-2.168,1.758-3.925,3.926-3.925
						C68.205,165.562,69.962,167.32,69.962,169.488z"/>
					<path id="XMLID_507_" style="fill:#FFFFFF;stroke:#FFFFFF;stroke-miterlimit:10;" d="M69.962,192.935
						c0,2.168-1.758,3.926-3.926,3.926c-2.168,0-3.926-1.758-3.926-3.926s1.758-3.926,3.926-3.926
						C68.205,189.009,69.962,190.767,69.962,192.935z"/>
					<path id="XMLID_505_" style="fill:#FFFFFF;stroke:#FFFFFF;stroke-miterlimit:10;" d="M69.962,216.382
						c0,2.169-1.758,3.926-3.926,3.926c-2.168,0-3.926-1.757-3.926-3.926c0-2.168,1.758-3.925,3.926-3.925
						C68.205,212.456,69.962,214.214,69.962,216.382z"/>
					<path id="XMLID_504_" style="fill:#FFFFFF;stroke:#FFFFFF;stroke-miterlimit:10;" d="M69.962,239.829
						c0,2.168-1.758,3.926-3.926,3.926c-2.168,0-3.926-1.758-3.926-3.926c0-2.168,1.758-3.926,3.926-3.926
						C68.205,235.904,69.962,237.661,69.962,239.829z"/>
					<path id="XMLID_503_" style="fill:#FFFFFF;stroke:#FFFFFF;stroke-miterlimit:10;" d="M69.962,263.276
						c0,2.168-1.758,3.926-3.926,3.926c-2.168,0-3.926-1.758-3.926-3.926c0-2.168,1.758-3.925,3.926-3.925
						C68.205,259.351,69.962,261.108,69.962,263.276z"/>
					<path id="XMLID_502_" style="fill:#FFFFFF;stroke:#FFFFFF;stroke-miterlimit:10;" d="M69.962,286.724
						c0,2.168-1.758,3.926-3.926,3.926c-2.168,0-3.926-1.757-3.926-3.926c0-2.168,1.758-3.926,3.926-3.926
						C68.205,282.798,69.962,284.556,69.962,286.724z"/>
				</g>
			</g>
			<g id="XMLID_412_">
				<g id="XMLID_475_">
					<path id="XMLID_485_" style="fill:#FFFFFF;stroke:#FFFFFF;stroke-miterlimit:10;" d="M69.962,308.533
						c0,2.168-1.758,3.926-3.926,3.926c-2.168,0-3.926-1.758-3.926-3.926c0-2.168,1.758-3.926,3.926-3.926
						C68.205,304.607,69.962,306.365,69.962,308.533z"/>
					<path id="XMLID_484_" style="fill:#FFFFFF;stroke:#FFFFFF;stroke-miterlimit:10;" d="M69.962,331.98
						c0,2.168-1.758,3.926-3.926,3.926c-2.168,0-3.926-1.758-3.926-3.926c0-2.168,1.758-3.926,3.926-3.926
						C68.205,328.054,69.962,329.812,69.962,331.98z"/>
					<path id="XMLID_483_" style="fill:#FFFFFF;stroke:#FFFFFF;stroke-miterlimit:10;" d="M69.962,355.427
						c0,2.168-1.758,3.926-3.926,3.926c-2.168,0-3.926-1.758-3.926-3.926c0-2.168,1.758-3.926,3.926-3.926
						C68.205,351.501,69.962,353.259,69.962,355.427z"/>
					<path id="XMLID_482_" style="fill:#FFFFFF;stroke:#FFFFFF;stroke-miterlimit:10;" d="M69.962,378.874
						c0,2.168-1.758,3.926-3.926,3.926c-2.168,0-3.926-1.758-3.926-3.926c0-2.168,1.758-3.926,3.926-3.926
						C68.205,374.949,69.962,376.706,69.962,378.874z"/>
					<path id="XMLID_479_" style="fill:#FFFFFF;stroke:#FFFFFF;stroke-miterlimit:10;" d="M69.962,402.321
						c0,2.168-1.758,3.926-3.926,3.926c-2.168,0-3.926-1.758-3.926-3.926c0-2.168,1.758-3.926,3.926-3.926
						C68.205,398.396,69.962,400.153,69.962,402.321z"/>
					<path id="XMLID_478_" style="fill:#FFFFFF;stroke:#FFFFFF;stroke-miterlimit:10;" d="M69.962,425.769
						c0,2.168-1.758,3.926-3.926,3.926c-2.168,0-3.926-1.758-3.926-3.926s1.758-3.926,3.926-3.926
						C68.205,421.843,69.962,423.601,69.962,425.769z"/>
					<path id="XMLID_477_" style="fill:#FFFFFF;stroke:#FFFFFF;stroke-miterlimit:10;" d="M69.962,449.216
						c0,2.168-1.758,3.926-3.926,3.926c-2.168,0-3.926-1.758-3.926-3.926s1.758-3.926,3.926-3.926
						C68.205,445.29,69.962,447.048,69.962,449.216z"/>
					<path id="XMLID_476_" style="fill:#FFFFFF;stroke:#FFFFFF;stroke-miterlimit:10;" d="M69.962,472.663
						c0,2.168-1.758,3.926-3.926,3.926c-2.168,0-3.926-1.758-3.926-3.926c0-2.168,1.758-3.926,3.926-3.926
						C68.205,468.737,69.962,470.495,69.962,472.663z"/>
				</g>
			</g>
		</g>
	</g>
</g>
</svg>
